<mxfile host="app.diagrams.net" modified="2024-01-18T15:01:53.296Z" agent="Mozilla/5.0 (Macintosh; Intel Mac OS X 10_15_7) AppleWebKit/605.1.15 (KHTML, like Gecko) Version/17.1 Safari/605.1.15" version="22.1.18" etag="tLZvTgm1xXd0CBBKXDrf" type="github">
  <diagram name="Page-1" id="ac7WEpDNgXt92kW7BULE">
    <mxGraphModel>
      <root>
        <mxCell id="0" />
        <mxCell id="1" parent="0" />
      </root>
    </mxGraphModel>
  </diagram>
</mxfile>
